<?xml version="1.0" encoding="UTF-8"?> <svg xmlns="http://www.w3.org/2000/svg" width="914" height="216" viewBox="0 0 914 216" fill="none"><path d="M116.467 0H0V215.609H116.467C230.908 215.609 258.253 149.422 258.253 107.804C258.253 66.1868 230.908 0 116.467 0Z" fill="black"></path><path fill-rule="evenodd" clip-rule="evenodd" d="M397.465 107.303C397.465 93.7647 385.818 72.7053 337.713 71.7024C385.818 70.1982 397.465 49.1386 397.465 36.1019C397.465 22.0623 385.311 0 333.155 0H279.984V215.107H332.649C384.805 215.107 396.958 193.045 396.958 179.005C396.958 164.965 384.805 142.903 332.649 142.903C384.805 143.405 397.465 121.342 397.465 107.303Z" fill="black"></path><path fill-rule="evenodd" clip-rule="evenodd" d="M418.773 215.609L556.508 215.108C621.323 215.108 637.021 184.521 637.021 165.467C637.021 146.413 621.83 115.827 556.508 115.827H523.592C523.592 22.5638 491.692 0 471.436 0C451.181 0 418.773 22.5638 418.773 118.334V215.609Z" fill="#E55151"></path><path fill-rule="evenodd" clip-rule="evenodd" d="M777.779 0C668.908 1.00283 641.564 72.2038 641.564 107.804C641.564 141.901 668.401 214.605 777.779 215.609C886.65 214.605 913.995 142.402 913.995 107.804C914.501 72.2038 887.156 1.00283 777.779 0C778.286 0 778.286 0 777.779 0C778.286 0 777.779 0 777.779 0Z" fill="black"></path></svg> 